<svg width="234" height="232" viewBox="0 0 234 232" fill="none" xmlns="http://www.w3.org/2000/svg">
<path d="M154.975 225.836C164.552 225.023 171.658 216.599 170.845 207.021L154.663 113.968C153.85 104.39 145.426 97.2848 135.848 98.0979C126.271 98.911 119.165 107.335 119.978 116.913L136.16 209.966C136.973 219.544 145.397 226.649 154.975 225.836Z" fill="#CFCFCF" stroke="#262525" stroke-width="1.07791" stroke-linecap="round" stroke-linejoin="round"/>
<path d="M157.248 112.884L173.892 203.793C175.802 214.226 169.357 224.371 159.102 227.076C147.672 230.091 136.095 222.741 133.959 211.115L117.263 120.216C115.219 109.088 122.667 98.4367 133.821 96.537L133.873 96.5282C144.829 94.6628 155.247 101.953 157.248 112.884V112.884Z" fill="white" stroke="#262525" stroke-width="1.07791" stroke-linecap="round" stroke-linejoin="round"/>
<path d="M223.037 117.191C215.395 111.359 204.473 112.827 198.642 120.468L139.525 197.934C133.694 205.576 135.161 216.498 142.803 222.329C150.444 228.161 161.366 226.693 167.198 219.052L226.314 141.586C232.146 133.944 230.678 123.022 223.037 117.191Z" fill="#CFCFCF" stroke="#262525" stroke-width="1.07791" stroke-linecap="round" stroke-linejoin="round"/>
<path d="M137.522 196.01L172.115 147.367C173.106 145.975 174.658 145.088 176.361 144.942L177.155 144.874L176.906 142.926C176.81 142.178 177.005 141.421 177.449 140.812L179.748 137.657C180.832 136.17 182.76 135.567 184.498 136.171L186.155 136.748L186.691 138.123C190.644 148.258 200.425 154.918 211.304 154.88L216.12 154.863L216.87 155.821C218.204 157.528 218.352 159.879 217.242 161.74L216.876 162.354C216.338 163.255 215.488 163.926 214.487 164.24L212.869 164.747L169.8 220.041C163.07 228.681 150.667 230.354 141.889 223.805C133.124 217.266 131.185 204.924 137.523 196.011L137.522 196.01Z" fill="white"/>
<path d="M142.183 189.456L172.116 147.367C173.106 145.975 174.658 145.088 176.361 144.942L177.155 144.874L176.906 142.926C176.811 142.178 177.005 141.421 177.449 140.811L179.748 137.657C180.832 136.17 182.761 135.567 184.498 136.171L186.155 136.748L186.692 138.123C190.644 148.258 200.426 154.918 211.304 154.879L216.121 154.863L216.87 155.821C218.204 157.528 218.352 159.879 217.242 161.74L216.876 162.354C216.338 163.255 215.488 163.926 214.487 164.24L212.869 164.747L169.8 220.041C163.07 228.681 150.667 230.354 141.89 223.805C138.35 221.164 135.924 217.578 134.706 213.653C134.706 213.653 133.957 211.098 133.662 209.493C133.367 207.888 133.182 206.88 133.182 206.88" stroke="#262525" stroke-width="1.07791" stroke-linecap="round" stroke-linejoin="round"/>
<path d="M177.155 144.874C177.155 144.874 182.653 156.15 191.893 161.019" stroke="#262525" stroke-width="1.07791" stroke-linecap="round" stroke-linejoin="round"/>
<path d="M212.868 164.746C212.868 164.746 207.376 165.541 201.919 162.858" stroke="#262525" stroke-width="1.07791" stroke-linecap="round" stroke-linejoin="round"/>
<path d="M87.8999 94.8839L97.2936 96.7648C101.538 97.6149 105.669 94.8624 106.518 90.6182L113.323 56.6298C114.173 52.3849 111.421 48.2549 107.176 47.4055L97.7828 45.5246C93.5378 44.6745 89.4078 47.427 88.5584 51.6712L81.7532 85.6596C80.9032 89.9045 83.6556 94.0345 87.8999 94.8839Z" fill="#CFCFCF" stroke="#262525" stroke-width="1.07791" stroke-linecap="round" stroke-linejoin="round"/>
<path d="M92.7482 57.3845L95.1378 45.45C95.9946 45.3277 96.8857 45.3452 97.7828 45.5246L107.176 47.4055C111.421 48.2556 114.173 52.3856 113.323 56.6298L107.806 84.1846C96.4764 81.916 90.2579 69.8229 92.7482 57.3845Z" fill="#262525" stroke="#262525" stroke-width="1.07791" stroke-linecap="round" stroke-linejoin="round"/>
<path d="M110.352 80.0109C119.602 82.4691 129.095 76.9628 131.553 67.7116L140.119 35.4738C143.331 23.3874 136.136 10.9859 124.05 7.77386C111.964 4.56244 99.5621 11.7567 96.35 23.843L90.5125 45.8116C86.5471 60.7337 95.4294 76.0449 110.352 80.0103V80.0109Z" fill="#CFCFCF" stroke="#262525" stroke-width="1.07791" stroke-linecap="round" stroke-linejoin="round"/>
<path d="M137.405 45.6845C137.405 45.6845 142.078 38.1187 144.787 31.9646C147.497 25.8106 145.912 18.3005 142.668 17.4383C142.668 17.4383 139.186 5.34257 118.943 1.89662C98.6991 -1.54932 93.5988 17.0734 93.5988 17.0734C93.5988 17.0734 88.5353 17.5539 85.0713 24.1521C81.6072 30.7503 83.9974 41.6526 85.4912 43.3064C85.4912 43.3064 81.3982 52.7686 87.2451 58.2278L89.8094 49.9107L96.6509 40.2495C96.6509 40.2495 99.2723 29.7558 102.52 27.1236C106.935 23.544 107.223 18.1157 107.223 18.1157C107.223 18.1157 112.801 15.5164 117.931 20.1021C122.916 24.5573 123.667 37.5764 139.292 38.587L137.406 45.6852L137.405 45.6845Z" fill="#262525" stroke="#262525" stroke-width="1.07791" stroke-linecap="round" stroke-linejoin="round"/>
<path d="M116.631 45.864C116.631 45.864 114.987 39.8403 105.923 41.3966" stroke="#262525" stroke-width="1.07791" stroke-linecap="round" stroke-linejoin="round"/>
<path d="M111.117 43.502C110.759 44.85 111.516 45.19 112.492 45.4494C113.468 45.7088 114.294 45.7894 114.652 44.4414C115.132 42.6365 114.341 42.4261 113.364 42.1667C112.388 41.9074 111.591 41.7192 111.117 43.502Z" fill="#262525"/>
<path d="M125.637 48.2569C125.637 48.2569 130.054 43.8433 137.151 49.6943" stroke="#262525" stroke-width="1.07791" stroke-linecap="round" stroke-linejoin="round"/>
<path d="M133.43 49.3758C133.072 50.7238 132.246 50.6432 131.27 50.3838C130.293 50.1244 129.536 49.7844 129.895 48.4364C130.374 46.6314 131.165 46.8417 132.142 47.1011C133.118 47.3605 133.904 47.593 133.43 49.3758Z" fill="#262525"/>
<path d="M123.064 44.0388C123.064 44.0388 123.217 53.3586 122.641 58.8702C122.568 59.5677 121.927 60.0663 121.233 59.9622C119.962 59.772 116.192 58.5933 116.192 58.5933" stroke="#262525" stroke-width="1.07791" stroke-linecap="round" stroke-linejoin="round"/>
<path d="M112.814 64.7777C106.07 63.0977 104.959 56.949 104.959 56.949" stroke="#262525" stroke-width="1.07791" stroke-linecap="round" stroke-linejoin="round"/>
<path d="M110.708 37.7114L115.552 38.9989C116.213 39.1743 116.891 38.7812 117.067 38.1199C117.243 37.4587 116.85 36.7807 116.188 36.6046L111.344 35.3171C110.683 35.1417 110.005 35.5348 109.829 36.196C109.653 36.8573 110.046 37.5353 110.708 37.7114Z" fill="#262525" stroke="#262525" stroke-width="1.07791" stroke-linecap="round" stroke-linejoin="round"/>
<path d="M129.487 42.7015L134.331 43.989C134.992 44.1644 135.67 43.7713 135.846 43.1101C136.022 42.4488 135.629 41.7708 134.967 41.5947L130.123 40.3072C129.462 40.1318 128.784 40.5249 128.608 41.1862C128.432 41.8474 128.825 42.5254 129.487 42.7015Z" fill="#262525" stroke="#262525" stroke-width="1.07791" stroke-linecap="round" stroke-linejoin="round"/>
<path d="M84.8817 45.8471L88.9707 49.3126C92.2991 52.1336 97.431 50.5235 98.5519 46.3068C99.1412 44.0906 98.4014 41.7326 96.6515 40.2502L92.5625 36.7848C89.2341 33.9638 84.1022 35.5738 82.9813 39.7905C82.3926 42.0067 83.1318 44.3647 84.8817 45.8471Z" fill="#CFCFCF"/>
<path d="M97.6715 41.3669C97.3846 40.9583 97.0432 40.582 96.6508 40.2494L92.5617 36.784C89.2334 33.963 84.1014 35.573 82.9806 39.7897C82.3919 42.006 83.1311 44.364 84.8809 45.8464L88.97 49.3118C89.3893 49.6673 89.8382 49.9529 90.3032 50.1712" stroke="#262525" stroke-width="1.07791" stroke-linecap="round" stroke-linejoin="round"/>
<path d="M92.7412 46.9304C93.4851 46.3861 94.0542 45.5924 94.3096 44.6322C94.9023 42.4005 93.5744 40.1111 91.3428 39.5184C89.8725 39.1273 88.3766 39.5715 87.3579 40.5579" stroke="#262525" stroke-width="1.07791" stroke-linecap="round" stroke-linejoin="round"/>
<path d="M94.3538 43.9319C93.8968 43.5469 93.4836 43.2895 92.868 43.1262C91.4737 42.7559 90.0564 43.1356 89.0444 44.0172" stroke="#262525" stroke-width="1.07791" stroke-linecap="round" stroke-linejoin="round"/>
<path d="M123.405 228.12H14.209L34.3134 90.5818C35.398 83.7134 41.5212 78.7925 48.4621 79.2111L82.597 81.2707L107.396 86.236L142.15 98.7813C148.636 101.123 152.315 107.975 150.683 114.674L123.405 228.12L123.405 228.12Z" fill="#CFCFCF"/>
<path d="M107.396 86.236L142.15 98.7813C148.636 101.122 152.315 107.975 150.683 114.674L123.405 228.12H14.209L34.3134 90.5824C35.398 83.714 41.5212 78.7931 48.4621 79.2117L82.6299 81.2774" stroke="#262525" stroke-width="1.07791" stroke-linecap="round" stroke-linejoin="round"/>
<path d="M71.7723 280.512L71.0371 257.545C70.5715 242.991 82.2445 230.939 96.8064 230.939C111.368 230.939 123.041 242.991 122.576 257.545L121.841 280.512H71.7716H71.7723Z" fill="#CFCFCF" stroke="#262525" stroke-width="1.07791" stroke-linecap="round" stroke-linejoin="round"/>
<path d="M66.4173 282.486H124.228L124.791 256.843C125.136 241.082 112.455 228.12 96.6902 228.12C80.9255 228.12 64.7165 241.424 65.3777 257.39L66.4173 282.486Z" fill="#262525" stroke="#262525" stroke-width="1.07791" stroke-linecap="round" stroke-linejoin="round"/>
<path d="M14.2092 228.12L15.0962 267.073H122.519L123.405 228.12H14.2092Z" fill="#CFCFCF" stroke="#262525" stroke-width="1.07791" stroke-linecap="round" stroke-linejoin="round"/>
<path d="M124.527 268.874L126.646 207.604L12.5894 203.479L10.7603 222.771L11.0734 268.874H124.527Z" fill="#262525" stroke="#262525" stroke-width="1.07791" stroke-linecap="round" stroke-linejoin="round"/>
<path d="M13.8487 280.512L13.1136 257.545C12.6479 242.991 24.3209 230.939 38.8829 230.939C53.4448 230.939 65.1179 242.991 64.6515 257.545L63.917 280.512H13.8487Z" fill="#CFCFCF" stroke="#262525" stroke-width="1.07791" stroke-linecap="round" stroke-linejoin="round"/>
<path d="M65.9052 282.486H11.4562L10.7708 258.141C10.3299 242.471 22.9122 229.529 38.5883 229.529C54.2644 229.529 66.733 242.341 66.4112 257.932L65.9045 282.485L65.9052 282.486Z" fill="#262525" stroke="#262525" stroke-width="1.07791" stroke-linecap="round" stroke-linejoin="round"/>
<path d="M32.6656 90.0759L12.6788 197.95C10.7394 208.417 9.44653 218.994 8.80815 229.62L7.11743 257.758H21.1599L25.3477 230.929C26.2576 225.098 28.2252 219.482 31.153 214.358L34.1427 209.125L32.6502 219.688C32.3176 222.042 32.159 224.417 32.1744 226.795L32.3827 257.757H129.035L129.662 219.322L152.829 115.473C154.642 107.343 150.004 99.1611 142.098 96.541L111.055 86.2556C110.385 86.0332 109.66 86.3235 109.327 86.9464C108.181 89.0934 105.144 93.6649 100.076 93.6649C90.6943 93.6649 83.0027 84.7766 80.296 81.2124C79.5911 80.2844 78.5253 79.7159 77.3614 79.6453L48.249 77.8881C40.7228 77.4338 34.0392 82.6605 32.6656 90.0738V90.0759Z" fill="white"/>
<path opacity="0.3" d="M148.949 132.865L129.663 219.323L129.036 257.758H32.3834L32.1751 226.795C32.159 224.418 32.3182 222.043 32.6509 219.689L34.1433 209.126L31.1537 214.359C28.2258 219.483 26.2583 225.098 25.3484 230.929L21.1606 257.758H7.11743L8.80815 229.62C9.44653 218.994 10.7394 208.417 12.6788 197.95L32.6656 90.0764C34.0392 82.6631 40.7234 77.4364 48.249 77.8906L77.3614 79.6479C78.5246 79.7178 79.5911 80.2869 80.296 81.2149C83.0027 84.7792 90.6943 93.6675 100.076 93.6675C105.144 93.6675 108.181 89.096 109.327 86.949C109.66 86.3261 110.385 86.0358 111.055 86.2582L142.098 96.5436C142.803 96.7775 143.481 97.055 144.132 97.3728C144.132 97.3728 148.487 99.1509 150.508 101.145" stroke="#262525" stroke-width="1.07791" stroke-linecap="round" stroke-linejoin="round"/>
<path d="M132.463 206.774L12.6565 198.085C12.6646 198.039 12.6706 197.994 12.6793 197.951L20.3689 156.447L139.941 173.251L132.463 206.774V206.774Z" fill="#262525" stroke="#262525" stroke-width="1.07791" stroke-linecap="round" stroke-linejoin="round"/>
<path d="M20.3686 156.447L139.941 173.25L138.098 181.512L18.1914 168.198L20.3686 156.447Z" fill="white" stroke="#262525" stroke-width="1.07791" stroke-linecap="round" stroke-linejoin="round"/>
<path d="M132.463 206.773L12.6565 198.085C12.6646 198.039 12.6706 197.994 12.6793 197.95L15.2934 183.845L134.922 195.752L132.463 206.774L132.463 206.773Z" fill="white" stroke="#262525" stroke-width="1.07791" stroke-linecap="round" stroke-linejoin="round"/>
<path d="M14.6748 204.384C23.7319 207.605 33.6846 202.874 36.9061 193.818L60.6588 102.404C63.8796 93.3465 59.1488 83.3938 50.0925 80.1723C41.0355 76.9514 31.0827 81.6822 27.8612 90.7386L4.10854 182.153C0.88771 191.21 5.61849 201.163 14.6748 204.385V204.384Z" fill="#CFCFCF" stroke="#262525" stroke-width="1.07791" stroke-linecap="round" stroke-linejoin="round"/>
<path d="M64.3519 103.162L40.7914 192.5C38.0867 202.757 27.9417 209.201 17.5078 207.291C5.88108 205.163 -1.47582 193.589 1.53199 182.158L25.0414 92.8056C27.9242 81.8495 39.2069 75.3649 50.1246 78.3895C60.8481 81.3603 67.1897 92.4011 64.3519 103.161V103.162Z" fill="white"/>
<path d="M60.742 116.849L40.7914 192.5C38.0867 202.756 27.9417 209.201 17.5078 207.291C5.88108 205.163 -1.47582 193.589 1.53199 182.158L25.0414 92.8055C27.7159 82.6411 37.621 76.3251 47.7565 77.8807L52.5814 78.1502" stroke="#262525" stroke-width="1.07791" stroke-linecap="round" stroke-linejoin="round"/>
<path d="M124.447 139.244C120.337 130.553 109.961 126.841 101.271 130.951L13.1792 172.611C4.48971 176.721 0.776321 187.096 4.88618 195.786C8.99605 204.477 19.3715 208.189 28.0616 204.079L116.154 162.419C124.843 158.309 128.556 147.934 124.447 139.244Z" fill="#CFCFCF" stroke="#262525" stroke-width="1.07791" stroke-linecap="round" stroke-linejoin="round"/>
<path d="M12.3438 169.052L62.3442 144.991C63.1748 144.591 64.1075 144.456 65.0167 144.603L66.6993 144.874L66.8008 144.116C66.9231 143.2 67.5071 142.411 68.3477 142.026L72.1297 140.293C73.7592 139.547 75.6804 140.339 76.3094 142.018L76.5439 142.644L76.636 145.636C76.974 156.653 84.1091 166.304 94.5424 169.859L97.9588 171.022L98.5837 172.274C99.249 173.606 98.9076 175.22 97.7612 176.17L97.0025 176.798C95.9663 177.656 94.6627 178.126 93.3167 178.126H92.2019L29.3201 205.873C18.9937 210.43 6.93362 205.676 2.49314 195.299C-1.77464 185.324 2.56571 173.756 12.3424 169.052L12.3438 169.052Z" fill="white"/>
<path d="M66.7 144.874C66.7 144.874 66.7 160.076 74.2511 167.515" stroke="#262525" stroke-width="1.07791" stroke-linecap="round" stroke-linejoin="round"/>
<path d="M92.2031 178.126C92.2031 178.126 86.9361 176.934 83.0278 173.158" stroke="#262525" stroke-width="1.07791" stroke-linecap="round" stroke-linejoin="round"/>
<path d="M19.471 165.622L62.3451 144.99C63.1756 144.591 64.1083 144.456 65.0175 144.602L66.7002 144.874L66.8017 144.116C66.924 143.2 67.5079 142.41 68.3486 142.025L72.1305 140.293C73.7601 139.546 75.6813 140.338 76.3103 142.017L76.5448 142.643L76.6368 145.636C76.9749 156.652 84.11 166.304 94.5433 169.858L97.9596 171.022L98.5846 172.274C99.2498 173.606 98.9085 175.22 97.7621 176.169L97.0034 176.798C95.9672 177.656 94.6635 178.125 93.3175 178.125H92.2027L29.321 205.872C18.9946 210.429 6.93448 205.675 2.494 195.298C0.494169 190.624 0.384636 185.6 1.83881 181.096L4.03285 172.651" stroke="#262525" stroke-width="1.07791" stroke-linecap="round" stroke-linejoin="round"/>
<path d="M120.431 160.974L107.42 161.018C96.9885 161.054 88.5034 152.626 88.4678 142.194L88.4026 123.132L129.032 122.993L129.038 124.471C129.053 128.923 132.674 132.518 137.124 132.503L139.222 132.496L139.255 142.02C139.291 152.452 130.863 160.937 120.431 160.973L120.431 160.974Z" fill="#CFCFCF"/>
<path d="M96.3828 157.506C91.6083 154.093 88.4883 148.512 88.4668 142.194L88.4016 123.132L129.031 122.993L129.037 124.471C129.052 128.923 132.673 132.518 137.123 132.503L139.221 132.496L139.254 142.02C139.29 152.452 130.862 160.937 120.43 160.973L118.59 161.018C118.59 161.018 117.214 161.912 116.409 162.295" stroke="#262525" stroke-width="1.07791" stroke-linecap="round" stroke-linejoin="round"/>
<path d="M129.036 124.39L118.878 124.425L118.784 101.994C118.774 99.189 121.04 96.9076 123.845 96.8976C126.65 96.8881 128.932 99.1541 128.941 101.959L129.036 124.39Z" fill="#CFCFCF"/>
<path d="M118.879 124.425L118.784 101.994C118.775 99.1891 121.041 96.9078 123.846 96.8977C126.65 96.8883 128.933 99.1542 128.942 101.959L129.037 124.39" fill="#CFCFCF"/>
<path d="M118.879 124.425L118.784 101.994C118.775 99.1891 121.041 96.9078 123.846 96.8977C126.65 96.8883 128.933 99.1542 128.942 101.959L129.037 124.39" stroke="#262525" stroke-width="1.07791" stroke-linecap="round" stroke-linejoin="round"/>
<path d="M120.223 105.496C118.275 103.495 118.309 100.295 120.3 98.3351L126.556 92.2032C128.566 90.2471 131.781 90.2908 133.737 92.3007C135.694 94.3106 135.65 97.526 133.64 99.4822L127.426 105.572C125.419 107.548 122.188 107.514 120.224 105.495L120.223 105.496Z" fill="#CFCFCF"/>
<path d="M128.956 105.418L128.951 104.079L133.64 99.4823C135.65 97.5261 135.693 94.3107 133.737 92.3007C131.781 90.2908 128.566 90.2472 126.556 92.2033L120.3 98.3352C119.28 99.3384 118.774 100.668 118.784 101.994V105.349" fill="#CFCFCF"/>
<path d="M128.956 105.418L128.951 104.079L133.64 99.4823C135.65 97.5261 135.693 94.3107 133.737 92.3007C131.781 90.2908 128.566 90.2472 126.556 92.2033L120.3 98.3352C119.28 99.3384 118.774 100.668 118.784 101.994V105.349" stroke="#262525" stroke-width="1.07791" stroke-linecap="round" stroke-linejoin="round"/>
<path d="M128.951 104.079L125.383 103.212" stroke="#262525" stroke-width="1.07791" stroke-linecap="round" stroke-linejoin="round"/>
<path d="M118.879 124.425L108.721 124.46L108.613 114.335C108.604 111.53 110.87 109.249 113.674 109.239C116.479 109.23 118.761 111.496 118.771 114.3L118.879 124.425Z" fill="#CFCFCF"/>
<path d="M108.721 124.459L108.613 114.334C108.604 111.53 110.87 109.248 113.674 109.238C116.479 109.229 118.761 111.495 118.771 114.3L118.879 124.424" fill="#CFCFCF"/>
<path d="M108.721 124.459L108.613 114.334C108.604 111.53 110.87 109.248 113.674 109.238C116.479 109.229 118.761 111.495 118.771 114.3L118.879 124.424" stroke="#262525" stroke-width="1.07791" stroke-linecap="round" stroke-linejoin="round"/>
<path d="M121.227 121.895C119.238 123.866 116.03 123.857 114.054 121.874L110.086 117.893C108.111 115.902 108.124 112.686 110.116 110.711C112.108 108.736 115.323 108.75 117.298 110.742L121.247 114.704C123.231 116.694 123.222 119.917 121.227 121.895Z" fill="#CFCFCF"/>
<path d="M110.498 118.307L114.054 121.874C116.03 123.857 119.239 123.867 121.226 121.895C123.222 119.917 123.232 116.693 121.247 114.704L117.298 110.742C115.323 108.75 112.108 108.736 110.116 110.711C109.11 111.709 108.609 113.022 108.613 114.335L108.648 117.531" fill="#CFCFCF"/>
<path d="M110.498 118.307L114.054 121.874C116.03 123.857 119.239 123.867 121.226 121.895C123.222 119.917 123.232 116.693 121.247 114.704L117.298 110.742C115.323 108.75 112.108 108.736 110.116 110.711C109.11 111.709 108.609 113.022 108.613 114.335L108.648 117.531" stroke="#262525" stroke-width="1.07791" stroke-linecap="round" stroke-linejoin="round"/>
<path d="M117.732 132.865C114.938 132.874 112.661 130.627 112.636 127.833L112.575 118.296C112.565 115.492 114.831 113.21 117.636 113.2C120.441 113.191 122.722 115.457 122.732 118.261L122.794 127.739C122.82 130.555 120.549 132.855 117.733 132.864L117.732 132.865Z" fill="#CFCFCF"/>
<path d="M112.581 119.341L112.635 127.833C112.661 130.627 114.937 132.875 117.731 132.865C120.547 132.856 122.818 130.556 122.791 127.74L122.73 118.262C122.725 116.711 122.025 115.326 120.927 114.398L119.059 112.509" fill="#CFCFCF"/>
<path d="M112.581 119.341L112.635 127.833C112.661 130.627 114.937 132.875 117.731 132.865C120.547 132.856 122.818 130.556 122.791 127.74L122.73 118.262C122.725 116.711 122.025 115.326 120.927 114.398L119.059 112.509" stroke="#262525" stroke-width="1.07791" stroke-linecap="round" stroke-linejoin="round"/>
<path d="M108.721 124.459L98.563 124.494L98.4683 114.334C98.4589 111.53 100.725 109.248 103.53 109.238C106.335 109.229 108.616 111.495 108.626 114.3L108.721 124.459Z" fill="#CFCFCF"/>
<path d="M98.5638 124.494L98.469 114.334C98.4596 111.53 100.726 109.248 103.53 109.238C106.335 109.229 108.617 111.495 108.627 114.3L108.722 124.459" fill="#CFCFCF"/>
<path d="M98.5638 124.494L98.469 114.334C98.4596 111.53 100.726 109.248 103.53 109.238C106.335 109.229 108.617 111.495 108.627 114.3L108.722 124.459" stroke="#262525" stroke-width="1.07791" stroke-linecap="round" stroke-linejoin="round"/>
<path d="M111.082 121.895C109.095 123.866 105.886 123.857 103.91 121.874L99.9414 117.893C97.9665 115.902 97.9799 112.686 99.9717 110.711C101.963 108.736 105.179 108.75 107.154 110.741L111.103 114.703C113.087 116.694 113.077 119.917 111.082 121.895Z" fill="#CFCFCF"/>
<path d="M100.713 118.668L103.909 121.874C105.886 123.857 109.094 123.867 111.082 121.895C113.078 119.917 113.087 116.693 111.103 114.703L107.154 110.741C105.179 108.75 101.963 108.736 99.9716 110.711C98.9656 111.708 98.4643 113.022 98.469 114.335L98.4993 117.609" fill="#CFCFCF"/>
<path d="M100.713 118.668L103.909 121.874C105.886 123.857 109.094 123.867 111.082 121.895C113.078 119.917 113.087 116.693 111.103 114.703L107.154 110.741C105.179 108.75 101.963 108.736 99.9716 110.711C98.9656 111.708 98.4643 113.022 98.469 114.335L98.4993 117.609" stroke="#262525" stroke-width="1.07791" stroke-linecap="round" stroke-linejoin="round"/>
<path d="M107.524 131.078C104.73 131.087 102.454 128.839 102.428 126.046L102.367 118.297C102.358 115.492 104.623 113.21 107.428 113.2C110.233 113.191 112.515 115.457 112.525 118.262L112.586 125.952C112.612 128.768 110.341 131.068 107.525 131.077L107.524 131.078Z" fill="#CFCFCF"/>
<path d="M102.367 119.138L102.428 126.046C102.454 128.839 104.73 131.087 107.524 131.078C110.34 131.068 112.611 128.769 112.584 125.953L112.523 118.262C112.519 116.869 111.953 115.608 111.041 114.693L109.071 112.666" fill="#CFCFCF"/>
<path d="M102.367 119.138L102.428 126.046C102.454 128.839 104.73 131.087 107.524 131.078C110.34 131.068 112.611 128.769 112.584 125.953L112.523 118.262C112.519 116.869 111.953 115.608 111.041 114.693L109.071 112.666" stroke="#262525" stroke-width="1.07791" stroke-linecap="round" stroke-linejoin="round"/>
<path d="M98.5643 125.918L88.4066 125.953L88.3421 115.758C88.3327 112.953 90.5986 110.672 93.4035 110.662C96.2083 110.652 98.4897 112.918 98.4998 115.723L98.5643 125.918Z" fill="#CFCFCF"/>
<path d="M88.4066 125.953L88.3421 115.758C88.3327 112.953 90.5986 110.672 93.4035 110.662C96.2083 110.652 98.4897 112.918 98.4998 115.723L98.5643 125.918" fill="#CFCFCF"/>
<path d="M88.4066 125.953L88.3421 115.758C88.3327 112.953 90.5986 110.672 93.4035 110.662C96.2083 110.652 98.4897 112.918 98.4998 115.723L98.5643 125.918" stroke="#262525" stroke-width="1.07791" stroke-linecap="round" stroke-linejoin="round"/>
<path d="M100.955 123.318C98.9676 125.289 95.7589 125.28 93.7826 123.297L89.8145 119.316C87.8395 117.325 87.853 114.109 89.8447 112.134C91.8365 110.159 95.0519 110.173 97.0269 112.165L100.976 116.127C102.96 118.117 102.95 121.34 100.955 123.318Z" fill="#CFCFCF"/>
<path d="M90.1953 119.698L93.7824 123.297C95.7587 125.28 98.9674 125.29 100.955 123.318C102.951 121.34 102.96 118.116 100.976 116.127L97.0267 112.165C95.0518 110.173 91.8363 110.159 89.8446 112.134C88.7768 113.193 88.2775 114.609 88.3487 116.002V119.104" fill="#CFCFCF"/>
<path d="M90.1953 119.698L93.7824 123.297C95.7587 125.28 98.9674 125.29 100.955 123.318C102.951 121.34 102.96 118.116 100.976 116.127L97.0267 112.165C95.0518 110.173 91.8363 110.159 89.8446 112.134C88.7768 113.193 88.2775 114.609 88.3487 116.002V119.104" stroke="#262525" stroke-width="1.07791" stroke-linecap="round" stroke-linejoin="round"/>
<path d="M97.4225 130.302C94.629 130.312 92.3523 128.064 92.3268 125.27L92.2657 119.72C92.2562 116.915 94.5222 114.634 97.327 114.623C100.132 114.614 102.413 116.88 102.423 119.685L102.485 125.177C102.511 127.993 100.24 130.293 97.4238 130.302H97.4225Z" fill="#CFCFCF"/>
<path d="M92.2656 119.72L92.3268 125.27C92.3523 128.064 94.629 130.312 97.4224 130.302C100.239 130.293 102.509 127.993 102.483 125.177L102.422 119.685C102.417 118.19 101.766 116.848 100.735 115.922L98.8867 114.031" fill="#CFCFCF"/>
<path d="M92.2656 119.72L92.3268 125.27C92.3523 128.064 94.629 130.312 97.4224 130.302C100.239 130.293 102.509 127.993 102.483 125.177L102.422 119.685C102.417 118.19 101.766 116.848 100.735 115.922L98.8867 114.031" stroke="#262525" stroke-width="1.07791" stroke-linecap="round" stroke-linejoin="round"/>
<path d="M137.148 145.44L127.393 142.609L133.943 120.042C134.724 117.348 137.542 115.798 140.236 116.58C142.93 117.361 144.48 120.179 143.698 122.873L137.149 145.44H137.148Z" fill="#CFCFCF"/>
<path d="M139.246 139.786L139.241 138.229L143.697 122.873C144.479 120.179 142.929 117.362 140.235 116.579C137.541 115.797 134.724 117.348 133.942 120.042L130.485 131.951L123.208 137.344C119.251 140.276 116.918 144.91 116.918 149.834V151.817" fill="#CFCFCF"/>
<path d="M139.246 139.786L139.241 138.229L143.697 122.873C144.479 120.179 142.929 117.362 140.235 116.579C137.541 115.797 134.724 117.348 133.942 120.042L130.485 131.951L123.208 137.344C119.251 140.276 116.918 144.91 116.918 149.834V151.817" stroke="#262525" stroke-width="1.07791" stroke-linecap="round" stroke-linejoin="round"/>
<path d="M143.706 122.875C142.927 125.558 140.128 127.108 137.441 126.345L129.99 124.219C127.296 123.438 125.746 120.62 126.527 117.926C127.309 115.232 130.127 113.683 132.821 114.464L140.216 116.574C142.925 117.343 144.491 120.171 143.706 122.875Z" fill="#CFCFCF"/>
<path d="M134.885 125.616L129.99 124.219C127.296 123.437 125.746 120.619 126.527 117.925C127.309 115.231 130.127 113.682 132.821 114.463L140.216 116.573C142.925 117.343 144.491 120.17 143.706 122.875L142.664 126.435" fill="#CFCFCF"/>
<path d="M134.885 125.616L129.99 124.219C127.296 123.437 125.746 120.619 126.527 117.925C127.309 115.231 130.127 113.682 132.821 114.463L140.216 116.573C142.925 117.343 144.491 120.17 143.706 122.875L142.664 126.435" stroke="#262525" stroke-width="1.07791" stroke-linecap="round" stroke-linejoin="round"/>
<path d="M229.572 103.305L222.208 111.315L203.678 94.2805C201.466 92.247 201.322 88.8058 203.355 86.5936C205.388 84.3814 208.83 84.237 211.042 86.2704L229.572 103.305Z" fill="#CFCFCF" stroke="#262525" stroke-width="1.07791" stroke-linecap="round" stroke-linejoin="round"/>
<path d="M160.957 155.361H198.907C200.838 155.361 202.47 153.928 202.718 152.013L212.836 73.9925C213.134 71.693 211.343 69.6555 209.025 69.6555H171.075C169.144 69.6555 167.512 71.0889 167.264 73.004L157.146 151.024C156.848 153.324 158.639 155.361 160.957 155.361Z" fill="white" stroke="#262525" stroke-width="1.07791" stroke-linecap="round" stroke-linejoin="round"/>
<path d="M163.585 155.361H201.535C203.466 155.361 205.097 153.928 205.345 152.013L215.463 73.9924C215.762 71.6929 213.971 69.6555 211.653 69.6555H173.703C171.772 69.6555 170.14 71.0888 169.892 73.004L159.774 151.024C159.476 153.324 161.266 155.361 163.585 155.361Z" fill="#262525" stroke="#262525" stroke-width="1.07791" stroke-linecap="round" stroke-linejoin="round"/>
<path d="M173.462 89.6638H179.195C180.031 89.6638 180.738 89.0462 180.85 88.2177L182.268 77.7461C182.403 76.7435 181.624 75.8518 180.613 75.8518H174.879C174.043 75.8518 173.336 76.4694 173.224 77.2979L171.807 87.7695C171.671 88.7721 172.451 89.6638 173.462 89.6638Z" fill="white" stroke="#262525" stroke-width="1.07791" stroke-linecap="round" stroke-linejoin="round"/>
<path d="M233.137 115.189L230.148 132.639C228.262 143.653 217.803 151.052 206.79 149.166L197.824 147.629L205.171 104.733L206.628 104.983C210.885 105.712 215.132 103.635 217.17 99.8277L219.17 96.0922L219.689 96.1809C228.651 97.7164 234.672 106.226 233.137 115.188V115.189Z" fill="#CFCFCF"/>
<path d="M220.153 94.6467L222.84 97.0463C230.012 99.8062 234.485 107.323 233.137 115.188L230.148 132.639C229.616 135.745 228.402 138.564 226.685 140.969C226.685 140.969 225.786 142.587 224.604 144.034C223.423 145.48 221.491 147.906 221.491 147.906" stroke="#262525" stroke-width="1.07791" stroke-linecap="round" stroke-linejoin="round"/>
<path d="M216.441 100.992C214.221 104.049 210.429 105.634 206.628 104.983L205.171 104.734L197.824 147.63L206.79 149.166C210.223 149.754 213.601 149.44 216.683 148.396" stroke="#262525" stroke-width="1.07791" stroke-linecap="round" stroke-linejoin="round"/>
<path d="M201.276 137.182L199.439 147.906L179.507 144.492C176.545 143.984 174.556 141.173 175.063 138.211C175.57 135.25 178.382 133.261 181.343 133.767L201.275 137.182H201.276Z" fill="#CFCFCF"/>
<path d="M199.439 147.906L179.507 144.492C176.546 143.984 174.557 141.173 175.063 138.211C175.571 135.25 178.382 133.261 181.344 133.767L201.275 137.182" stroke="#262525" stroke-width="1.07791" stroke-linecap="round" stroke-linejoin="round"/>
<path d="M203.113 126.458L201.276 137.182L172.153 132.194C169.191 131.686 167.202 128.875 167.709 125.913C168.216 122.952 171.028 120.963 173.989 121.47L203.113 126.458H203.113Z" fill="#CFCFCF"/>
<path d="M201.276 137.182L172.153 132.194C169.191 131.686 167.202 128.875 167.709 125.913C168.216 122.952 171.028 120.963 173.989 121.47L203.113 126.458" stroke="#262525" stroke-width="1.07791" stroke-linecap="round" stroke-linejoin="round"/>
<path d="M204.95 115.734L203.113 126.458L169.889 120.767C166.927 120.26 164.938 117.448 165.445 114.487C165.952 111.525 168.764 109.536 171.725 110.043L204.949 115.734H204.95Z" fill="#CFCFCF"/>
<path d="M203.113 126.458L169.89 120.767C166.928 120.259 164.939 117.448 165.446 114.486C165.953 111.525 168.765 109.536 171.726 110.042L204.95 115.733" stroke="#262525" stroke-width="1.07791" stroke-linecap="round" stroke-linejoin="round"/>
<path d="M206.787 105.01L204.95 115.734L175.826 110.746C172.865 110.239 170.876 107.427 171.383 104.466C171.889 101.504 174.701 99.5151 177.663 100.022L206.786 105.01H206.787Z" fill="#CFCFCF"/>
<path d="M204.95 115.734L175.826 110.746C172.865 110.239 170.876 107.427 171.383 104.466C171.889 101.504 174.701 99.5151 177.663 100.022L206.786 105.01" stroke="#262525" stroke-width="1.07791" stroke-linecap="round" stroke-linejoin="round"/>
</svg>
