<svg width="31" height="16" viewBox="0 0 31 16" fill="none" xmlns="http://www.w3.org/2000/svg">
<path d="M16.2253 5.7413L17.7067 3.15863L22.7387 2.83596L22.9147 2.5213L18.264 2.19863L19.3573 0.313298H27.984C30.6373 0.313298 32.5973 1.26663 31.8333 4.04663C31.6067 4.8973 30.528 7.02396 27.3587 7.91196C28.0347 7.99196 29.7053 8.7333 29.412 10.6546C28.9 14.0653 24.492 15.6866 22.0347 15.6866L11.8467 15.6946L11.34 13.7213L16.68 13.348L16.8627 13.032L11.068 12.68L10.4453 10.34L18.6827 9.85596L18.8653 9.54797L4.07067 8.62397L4.78267 7.39063L20.7133 6.3573L20.8973 6.0493L16.2253 5.7413ZM22.892 6.25463L24.3587 6.24663C25.3427 6.23996 26.3613 5.7933 26.736 4.8893C27.0813 4.04663 26.6187 3.32797 26.0027 3.33463H24.58L22.892 6.25463ZM21.1987 9.1813L19.4307 12.2546H21.1173C21.9027 12.2546 23.304 11.8653 23.736 10.7506C24.1387 9.7093 23.3987 9.1813 22.8853 9.1813H21.1987ZM8.34667 13.9266L7.32 15.68L0 15.6933L0.712 14.4626L8.34667 13.9266ZM8.86 0.305298L14.7493 0.313298L15.1973 1.9773L8.16267 1.5373L8.86 0.305298ZM15.5267 3.29863L16.172 5.7413L6.116 5.0813L6.82 3.85463L15.5267 3.29863ZM10.4067 10.34L9.13067 12.5546L2.03733 12.152L2.74933 10.92L10.4067 10.34Z" fill="black"/>
</svg>
